<svg xmlns="http://www.w3.org/2000/svg" viewBox="0 0 800 500" fill="none">
  <rect width="800" height="500" fill="#FAF9F6" rx="8"/>
  <text x="400" y="30" text-anchor="middle" font-family="system-ui" font-size="16" font-weight="bold" fill="#1A1A1A">Capas del Muro de Mampostería</text>

  <!-- Interior / Exterior labels -->
  <text x="80" y="225" text-anchor="middle" font-family="system-ui" font-size="11" font-weight="bold" fill="#6B6B6B">INTERIOR</text>
  <text x="720" y="225" text-anchor="middle" font-family="system-ui" font-size="11" font-weight="bold" fill="#6B6B6B">EXTERIOR</text>

  <!-- Direction arrow from interior to exterior -->
  <line x1="100" y1="215" x2="115" y2="215" stroke="#6B6B6B" stroke-width="1.5" marker-end="url(#arrowIn)"/>
  <polygon points="115,210 125,215 115,220" fill="#6B6B6B"/>
  <line x1="685" y1="215" x2="700" y2="215" stroke="#6B6B6B" stroke-width="1.5"/>
  <polygon points="700,210 710,215 700,220" fill="#6B6B6B"/>

  <!-- ============================================ -->
  <!-- LAYER 1: Revoque interior -->
  <!-- ============================================ -->
  <rect x="130" y="100" width="40" height="260" fill="#E8D5B7" stroke="#2D2D2D" stroke-width="1.5" rx="1"/>
  <!-- Dotted texture -->
  <circle cx="145" cy="130" r="2" fill="#D4B89A" opacity="0.6"/>
  <circle cx="155" cy="160" r="2.5" fill="#D4B89A" opacity="0.6"/>
  <circle cx="140" cy="190" r="2" fill="#D4B89A" opacity="0.6"/>
  <circle cx="150" cy="220" r="2.5" fill="#D4B89A" opacity="0.6"/>
  <circle cx="145" cy="260" r="2" fill="#D4B89A" opacity="0.6"/>
  <circle cx="155" cy="300" r="2" fill="#D4B89A" opacity="0.6"/>
  <circle cx="140" cy="330" r="2.5" fill="#D4B89A" opacity="0.6"/>

  <!-- ============================================ -->
  <!-- LAYER 2: Ladrillo cerámico hueco -->
  <!-- ============================================ -->
  <rect x="170" y="100" width="260" height="260" fill="#C17A57" stroke="#2D2D2D" stroke-width="1.5" rx="1"/>

  <!-- Brick divisions (horizontal + vertical lines for individual bricks in cross-section) -->
  <!-- Horizontal mortar lines (every ~28px) -->
  <rect x="170" y="128" width="260" height="4" fill="#B8A99A" stroke="none"/>
  <rect x="170" y="156" width="260" height="4" fill="#B8A99A" stroke="none"/>
  <rect x="170" y="184" width="260" height="4" fill="#B8A99A" stroke="none"/>
  <rect x="170" y="212" width="260" height="4" fill="#B8A99A" stroke="none"/>
  <rect x="170" y="240" width="260" height="4" fill="#B8A99A" stroke="none"/>
  <rect x="170" y="268" width="260" height="4" fill="#B8A99A" stroke="none"/>
  <rect x="170" y="296" width="260" height="4" fill="#B8A99A" stroke="none"/>
  <rect x="170" y="324" width="260" height="4" fill="#B8A99A" stroke="none"/>
  <rect x="170" y="352" width="260" height="4" fill="#B8A99A" stroke="none"/>

  <!-- Vertical holes in brick cross-section (shown as rectangles within the brick) -->
  <!-- Row 1 -->
  <rect x="195" y="105" width="18" height="23" fill="#F5F3EF" stroke="#9C4A2E" stroke-width="1" rx="1"/>
  <rect x="225" y="105" width="18" height="23" fill="#F5F3EF" stroke="#9C4A2E" stroke-width="1" rx="1"/>
  <rect x="255" y="105" width="18" height="23" fill="#F5F3EF" stroke="#9C4A2E" stroke-width="1" rx="1"/>
  <rect x="285" y="105" width="18" height="23" fill="#F5F3EF" stroke="#9C4A2E" stroke-width="1" rx="1"/>
  <rect x="315" y="105" width="18" height="23" fill="#F5F3EF" stroke="#9C4A2E" stroke-width="1" rx="1"/>
  <rect x="345" y="105" width="18" height="23" fill="#F5F3EF" stroke="#9C4A2E" stroke-width="1" rx="1"/>
  <rect x="375" y="105" width="18" height="23" fill="#F5F3EF" stroke="#9C4A2E" stroke-width="1" rx="1"/>
  <rect x="400" y="105" width="18" height="23" fill="#F5F3EF" stroke="#9C4A2E" stroke-width="1" rx="1"/>
  <!-- Row 2 -->
  <rect x="195" y="133" width="18" height="23" fill="#F5F3EF" stroke="#9C4A2E" stroke-width="1" rx="1"/>
  <rect x="225" y="133" width="18" height="23" fill="#F5F3EF" stroke="#9C4A2E" stroke-width="1" rx="1"/>
  <rect x="255" y="133" width="18" height="23" fill="#F5F3EF" stroke="#9C4A2E" stroke-width="1" rx="1"/>
  <rect x="285" y="133" width="18" height="23" fill="#F5F3EF" stroke="#9C4A2E" stroke-width="1" rx="1"/>
  <rect x="315" y="133" width="18" height="23" fill="#F5F3EF" stroke="#9C4A2E" stroke-width="1" rx="1"/>
  <rect x="345" y="133" width="18" height="23" fill="#F5F3EF" stroke="#9C4A2E" stroke-width="1" rx="1"/>
  <rect x="375" y="133" width="18" height="23" fill="#F5F3EF" stroke="#9C4A2E" stroke-width="1" rx="1"/>
  <rect x="400" y="133" width="18" height="23" fill="#F5F3EF" stroke="#9C4A2E" stroke-width="1" rx="1"/>
  <!-- Row 3 -->
  <rect x="195" y="161" width="18" height="23" fill="#F5F3EF" stroke="#9C4A2E" stroke-width="1" rx="1"/>
  <rect x="225" y="161" width="18" height="23" fill="#F5F3EF" stroke="#9C4A2E" stroke-width="1" rx="1"/>
  <rect x="255" y="161" width="18" height="23" fill="#F5F3EF" stroke="#9C4A2E" stroke-width="1" rx="1"/>
  <rect x="285" y="161" width="18" height="23" fill="#F5F3EF" stroke="#9C4A2E" stroke-width="1" rx="1"/>
  <rect x="315" y="161" width="18" height="23" fill="#F5F3EF" stroke="#9C4A2E" stroke-width="1" rx="1"/>
  <rect x="345" y="161" width="18" height="23" fill="#F5F3EF" stroke="#9C4A2E" stroke-width="1" rx="1"/>
  <rect x="375" y="161" width="18" height="23" fill="#F5F3EF" stroke="#9C4A2E" stroke-width="1" rx="1"/>
  <rect x="400" y="161" width="18" height="23" fill="#F5F3EF" stroke="#9C4A2E" stroke-width="1" rx="1"/>
  <!-- Row 4 -->
  <rect x="195" y="189" width="18" height="23" fill="#F5F3EF" stroke="#9C4A2E" stroke-width="1" rx="1"/>
  <rect x="225" y="189" width="18" height="23" fill="#F5F3EF" stroke="#9C4A2E" stroke-width="1" rx="1"/>
  <rect x="255" y="189" width="18" height="23" fill="#F5F3EF" stroke="#9C4A2E" stroke-width="1" rx="1"/>
  <rect x="285" y="189" width="18" height="23" fill="#F5F3EF" stroke="#9C4A2E" stroke-width="1" rx="1"/>
  <rect x="315" y="189" width="18" height="23" fill="#F5F3EF" stroke="#9C4A2E" stroke-width="1" rx="1"/>
  <rect x="345" y="189" width="18" height="23" fill="#F5F3EF" stroke="#9C4A2E" stroke-width="1" rx="1"/>
  <rect x="375" y="189" width="18" height="23" fill="#F5F3EF" stroke="#9C4A2E" stroke-width="1" rx="1"/>
  <rect x="400" y="189" width="18" height="23" fill="#F5F3EF" stroke="#9C4A2E" stroke-width="1" rx="1"/>
  <!-- Row 5 -->
  <rect x="195" y="217" width="18" height="23" fill="#F5F3EF" stroke="#9C4A2E" stroke-width="1" rx="1"/>
  <rect x="225" y="217" width="18" height="23" fill="#F5F3EF" stroke="#9C4A2E" stroke-width="1" rx="1"/>
  <rect x="255" y="217" width="18" height="23" fill="#F5F3EF" stroke="#9C4A2E" stroke-width="1" rx="1"/>
  <rect x="285" y="217" width="18" height="23" fill="#F5F3EF" stroke="#9C4A2E" stroke-width="1" rx="1"/>
  <rect x="315" y="217" width="18" height="23" fill="#F5F3EF" stroke="#9C4A2E" stroke-width="1" rx="1"/>
  <rect x="345" y="217" width="18" height="23" fill="#F5F3EF" stroke="#9C4A2E" stroke-width="1" rx="1"/>
  <rect x="375" y="217" width="18" height="23" fill="#F5F3EF" stroke="#9C4A2E" stroke-width="1" rx="1"/>
  <rect x="400" y="217" width="18" height="23" fill="#F5F3EF" stroke="#9C4A2E" stroke-width="1" rx="1"/>
  <!-- Row 6 -->
  <rect x="195" y="245" width="18" height="23" fill="#F5F3EF" stroke="#9C4A2E" stroke-width="1" rx="1"/>
  <rect x="225" y="245" width="18" height="23" fill="#F5F3EF" stroke="#9C4A2E" stroke-width="1" rx="1"/>
  <rect x="255" y="245" width="18" height="23" fill="#F5F3EF" stroke="#9C4A2E" stroke-width="1" rx="1"/>
  <rect x="285" y="245" width="18" height="23" fill="#F5F3EF" stroke="#9C4A2E" stroke-width="1" rx="1"/>
  <rect x="315" y="245" width="18" height="23" fill="#F5F3EF" stroke="#9C4A2E" stroke-width="1" rx="1"/>
  <rect x="345" y="245" width="18" height="23" fill="#F5F3EF" stroke="#9C4A2E" stroke-width="1" rx="1"/>
  <rect x="375" y="245" width="18" height="23" fill="#F5F3EF" stroke="#9C4A2E" stroke-width="1" rx="1"/>
  <rect x="400" y="245" width="18" height="23" fill="#F5F3EF" stroke="#9C4A2E" stroke-width="1" rx="1"/>
  <!-- Row 7 -->
  <rect x="195" y="273" width="18" height="23" fill="#F5F3EF" stroke="#9C4A2E" stroke-width="1" rx="1"/>
  <rect x="225" y="273" width="18" height="23" fill="#F5F3EF" stroke="#9C4A2E" stroke-width="1" rx="1"/>
  <rect x="255" y="273" width="18" height="23" fill="#F5F3EF" stroke="#9C4A2E" stroke-width="1" rx="1"/>
  <rect x="285" y="273" width="18" height="23" fill="#F5F3EF" stroke="#9C4A2E" stroke-width="1" rx="1"/>
  <rect x="315" y="273" width="18" height="23" fill="#F5F3EF" stroke="#9C4A2E" stroke-width="1" rx="1"/>
  <rect x="345" y="273" width="18" height="23" fill="#F5F3EF" stroke="#9C4A2E" stroke-width="1" rx="1"/>
  <rect x="375" y="273" width="18" height="23" fill="#F5F3EF" stroke="#9C4A2E" stroke-width="1" rx="1"/>
  <rect x="400" y="273" width="18" height="23" fill="#F5F3EF" stroke="#9C4A2E" stroke-width="1" rx="1"/>
  <!-- Row 8 -->
  <rect x="195" y="301" width="18" height="23" fill="#F5F3EF" stroke="#9C4A2E" stroke-width="1" rx="1"/>
  <rect x="225" y="301" width="18" height="23" fill="#F5F3EF" stroke="#9C4A2E" stroke-width="1" rx="1"/>
  <rect x="255" y="301" width="18" height="23" fill="#F5F3EF" stroke="#9C4A2E" stroke-width="1" rx="1"/>
  <rect x="285" y="301" width="18" height="23" fill="#F5F3EF" stroke="#9C4A2E" stroke-width="1" rx="1"/>
  <rect x="315" y="301" width="18" height="23" fill="#F5F3EF" stroke="#9C4A2E" stroke-width="1" rx="1"/>
  <rect x="345" y="301" width="18" height="23" fill="#F5F3EF" stroke="#9C4A2E" stroke-width="1" rx="1"/>
  <rect x="375" y="301" width="18" height="23" fill="#F5F3EF" stroke="#9C4A2E" stroke-width="1" rx="1"/>
  <rect x="400" y="301" width="18" height="23" fill="#F5F3EF" stroke="#9C4A2E" stroke-width="1" rx="1"/>
  <!-- Row 9 -->
  <rect x="195" y="328" width="18" height="24" fill="#F5F3EF" stroke="#9C4A2E" stroke-width="1" rx="1"/>
  <rect x="225" y="328" width="18" height="24" fill="#F5F3EF" stroke="#9C4A2E" stroke-width="1" rx="1"/>
  <rect x="255" y="328" width="18" height="24" fill="#F5F3EF" stroke="#9C4A2E" stroke-width="1" rx="1"/>
  <rect x="285" y="328" width="18" height="24" fill="#F5F3EF" stroke="#9C4A2E" stroke-width="1" rx="1"/>
  <rect x="315" y="328" width="18" height="24" fill="#F5F3EF" stroke="#9C4A2E" stroke-width="1" rx="1"/>
  <rect x="345" y="328" width="18" height="24" fill="#F5F3EF" stroke="#9C4A2E" stroke-width="1" rx="1"/>
  <rect x="375" y="328" width="18" height="24" fill="#F5F3EF" stroke="#9C4A2E" stroke-width="1" rx="1"/>
  <rect x="400" y="328" width="18" height="24" fill="#F5F3EF" stroke="#9C4A2E" stroke-width="1" rx="1"/>

  <!-- ============================================ -->
  <!-- LAYER 3: Cámara de aire -->
  <!-- ============================================ -->
  <rect x="430" y="100" width="55" height="260" fill="#F0EDE8" stroke="#2D2D2D" stroke-width="1.5" rx="1"/>
  <!-- Diagonal lines for air gap -->
  <line x1="435" y1="105" x2="480" y2="150" stroke="#D4C5B5" stroke-width="1"/>
  <line x1="435" y1="145" x2="480" y2="190" stroke="#D4C5B5" stroke-width="1"/>
  <line x1="435" y1="185" x2="480" y2="230" stroke="#D4C5B5" stroke-width="1"/>
  <line x1="435" y1="225" x2="480" y2="270" stroke="#D4C5B5" stroke-width="1"/>
  <line x1="435" y1="265" x2="480" y2="310" stroke="#D4C5B5" stroke-width="1"/>
  <line x1="435" y1="305" x2="480" y2="350" stroke="#D4C5B5" stroke-width="1"/>
  <line x1="435" y1="340" x2="480" y2="355" stroke="#D4C5B5" stroke-width="1"/>

  <!-- ============================================ -->
  <!-- LAYER 4: Aislación térmica (EPS/XPS) -->
  <!-- ============================================ -->
  <rect x="485" y="100" width="80" height="260" fill="#B8D4B0" stroke="#2D2D2D" stroke-width="1.5" rx="1"/>
  <!-- Small circles for insulation texture -->
  <circle cx="500" cy="120" r="4" fill="#A0C498" stroke="none"/>
  <circle cx="520" cy="140" r="4" fill="#A0C498" stroke="none"/>
  <circle cx="540" cy="115" r="4" fill="#A0C498" stroke="none"/>
  <circle cx="510" cy="170" r="4" fill="#A0C498" stroke="none"/>
  <circle cx="535" cy="185" r="4" fill="#A0C498" stroke="none"/>
  <circle cx="550" cy="210" r="4" fill="#A0C498" stroke="none"/>
  <circle cx="500" cy="230" r="4" fill="#A0C498" stroke="none"/>
  <circle cx="525" cy="260" r="4" fill="#A0C498" stroke="none"/>
  <circle cx="545" cy="290" r="4" fill="#A0C498" stroke="none"/>
  <circle cx="505" cy="310" r="4" fill="#A0C498" stroke="none"/>
  <circle cx="540" cy="335" r="4" fill="#A0C498" stroke="none"/>
  <circle cx="520" cy="200" r="4" fill="#A0C498" stroke="none"/>
  <circle cx="550" cy="155" r="4" fill="#A0C498" stroke="none"/>
  <circle cx="510" cy="285" r="4" fill="#A0C498" stroke="none"/>

  <!-- ============================================ -->
  <!-- LAYER 5: Revoque exterior -->
  <!-- ============================================ -->
  <rect x="565" y="100" width="50" height="260" fill="#C4B5A5" stroke="#2D2D2D" stroke-width="1.5" rx="1"/>
  <!-- Coarse aggregate dots -->
  <circle cx="580" cy="120" r="2.5" fill="#A09080" opacity="0.6"/>
  <circle cx="595" cy="145" r="2" fill="#A09080" opacity="0.6"/>
  <circle cx="575" cy="170" r="3" fill="#A09080" opacity="0.6"/>
  <circle cx="600" cy="195" r="2" fill="#A09080" opacity="0.6"/>
  <circle cx="580" cy="225" r="2.5" fill="#A09080" opacity="0.6"/>
  <circle cx="595" cy="250" r="2" fill="#A09080" opacity="0.6"/>
  <circle cx="575" cy="280" r="3" fill="#A09080" opacity="0.6"/>
  <circle cx="600" cy="310" r="2" fill="#A09080" opacity="0.6"/>
  <circle cx="580" cy="340" r="2.5" fill="#A09080" opacity="0.6"/>

  <!-- ============================================ -->
  <!-- LAYER 6: Pintura impermeable -->
  <!-- ============================================ -->
  <rect x="615" y="100" width="3" height="260" fill="#7BA4DB" stroke="#2D2D2D" stroke-width="1" rx="0"/>

  <!-- ============================================ -->
  <!-- LAYER NUMBER CIRCLES (above) -->
  <!-- ============================================ -->
  <!-- Layer 1 -->
  <circle cx="150" cy="80" r="12" fill="#2D2D2D" stroke="none"/>
  <text x="150" y="85" text-anchor="middle" font-family="system-ui" font-size="12" font-weight="bold" fill="white">1</text>
  <line x1="150" y1="92" x2="150" y2="99" stroke="#2D2D2D" stroke-width="1.5"/>

  <!-- Layer 2 -->
  <circle cx="300" cy="80" r="12" fill="#2D2D2D" stroke="none"/>
  <text x="300" y="85" text-anchor="middle" font-family="system-ui" font-size="12" font-weight="bold" fill="white">2</text>
  <line x1="300" y1="92" x2="300" y2="99" stroke="#2D2D2D" stroke-width="1.5"/>

  <!-- Layer 3 -->
  <circle cx="457" cy="80" r="12" fill="#2D2D2D" stroke="none"/>
  <text x="457" y="85" text-anchor="middle" font-family="system-ui" font-size="12" font-weight="bold" fill="white">3</text>
  <line x1="457" y1="92" x2="457" y2="99" stroke="#2D2D2D" stroke-width="1.5"/>

  <!-- Layer 4 -->
  <circle cx="525" cy="80" r="12" fill="#2D2D2D" stroke="none"/>
  <text x="525" y="85" text-anchor="middle" font-family="system-ui" font-size="12" font-weight="bold" fill="white">4</text>
  <line x1="525" y1="92" x2="525" y2="99" stroke="#2D2D2D" stroke-width="1.5"/>

  <!-- Layer 5 -->
  <circle cx="590" cy="80" r="12" fill="#2D2D2D" stroke="none"/>
  <text x="590" y="85" text-anchor="middle" font-family="system-ui" font-size="12" font-weight="bold" fill="white">5</text>
  <line x1="590" y1="92" x2="590" y2="99" stroke="#2D2D2D" stroke-width="1.5"/>

  <!-- Layer 6 -->
  <circle cx="616" cy="80" r="12" fill="#2D2D2D" stroke="none"/>
  <text x="616" y="85" text-anchor="middle" font-family="system-ui" font-size="12" font-weight="bold" fill="white">6</text>
  <line x1="616" y1="92" x2="616" y2="99" stroke="#2D2D2D" stroke-width="1.5"/>

  <!-- ============================================ -->
  <!-- LABELS WITH ARROWS (below) -->
  <!-- ============================================ -->
  <!-- Layer 1: Revoque interior -->
  <line x1="150" y1="365" x2="150" y2="410" stroke="#2D2D2D" stroke-width="1.5"/>
  <polygon points="150,410 145,400 155,400" fill="#2D2D2D"/>
  <text x="150" y="425" text-anchor="middle" font-family="system-ui" font-size="11" font-weight="bold" fill="#1A1A1A">Revoque interior</text>
  <text x="150" y="440" text-anchor="middle" font-family="system-ui" font-size="10" fill="#6B6B6B">2 cm</text>

  <!-- Layer 2: Ladrillo cerámico hueco -->
  <line x1="300" y1="365" x2="300" y2="435" stroke="#2D2D2D" stroke-width="1.5"/>
  <polygon points="300,435 295,425 305,425" fill="#2D2D2D"/>
  <text x="300" y="450" text-anchor="middle" font-family="system-ui" font-size="11" font-weight="bold" fill="#1A1A1A">Ladrillo cerámico hueco</text>
  <text x="300" y="465" text-anchor="middle" font-family="system-ui" font-size="10" fill="#6B6B6B">14 cm</text>

  <!-- Layer 3: Cámara de aire -->
  <line x1="457" y1="365" x2="457" y2="385" stroke="#2D2D2D" stroke-width="1.5"/>
  <polygon points="457,385 452,375 462,375" fill="#2D2D2D"/>
  <text x="457" y="400" text-anchor="middle" font-family="system-ui" font-size="11" font-weight="bold" fill="#1A1A1A">Cámara de aire</text>
  <text x="457" y="415" text-anchor="middle" font-family="system-ui" font-size="10" fill="#6B6B6B">2-3 cm</text>

  <!-- Layer 4: Aislación térmica -->
  <line x1="525" y1="365" x2="525" y2="415" stroke="#2D2D2D" stroke-width="1.5"/>
  <polygon points="525,415 520,405 530,405" fill="#2D2D2D"/>
  <text x="525" y="430" text-anchor="middle" font-family="system-ui" font-size="11" font-weight="bold" fill="#1A1A1A">Aislación térmica</text>
  <text x="525" y="445" text-anchor="middle" font-family="system-ui" font-size="10" fill="#6B6B6B">EPS/XPS — 4 cm</text>

  <!-- Layer 5: Revoque exterior -->
  <line x1="590" y1="365" x2="590" y2="410" stroke="#2D2D2D" stroke-width="1.5"/>
  <polygon points="590,410 585,400 595,400" fill="#2D2D2D"/>
  <text x="590" y="425" text-anchor="middle" font-family="system-ui" font-size="11" font-weight="bold" fill="#1A1A1A">Revoque exterior</text>
  <text x="590" y="440" text-anchor="middle" font-family="system-ui" font-size="10" fill="#6B6B6B">2-3 cm</text>

  <!-- Layer 6: Pintura impermeable -->
  <line x1="616" y1="365" x2="616" y2="385" stroke="#2D2D2D" stroke-width="1.5"/>
  <polygon points="616,385 611,375 621,375" fill="#2D2D2D"/>
  <text x="616" y="400" text-anchor="middle" font-family="system-ui" font-size="11" font-weight="bold" fill="#1A1A1A">Pintura impermeable</text>
  <text x="616" y="415" text-anchor="middle" font-family="system-ui" font-size="10" fill="#6B6B6B">1 mm</text>

  <!-- Footer note -->
  <text x="400" y="485" text-anchor="middle" font-family="system-ui" font-size="10" fill="#6B6B6B">Corte horizontal — del interior al exterior del muro</text>
</svg>
